<svg width="310" height="28" xmlns="http://www.w3.org/2000/svg"><path d="M2.5 21.253l2.166-5.229h10.289l2.192 5.229h2.25L10.85 1.349H8.882L.28 21.253H2.5zm11.696-7.084H5.425L9.81 3.599l4.386 10.57zm9.923 7.084v-6.747c0-.88.108-1.635.324-2.263.215-.628.496-1.143.843-1.546a3.134 3.134 0 0 1 1.223-.886 3.9 3.9 0 0 1 1.462-.28c.262 0 .525.018.787.055.262.038.45.075.562.113l.253-1.8a3.59 3.59 0 0 0-.604-.112 7.02 7.02 0 0 0-.66-.028c-.938 0-1.781.239-2.531.717a4.557 4.557 0 0 0-1.687 1.87h-.056a25.454 25.454 0 0 0-.112-2.25h-1.828c.038.45.066.956.085 1.518.018.563.028 1.022.028 1.378v10.261h1.911zm13.775.337c1.144 0 2.123-.206 2.938-.618a6.268 6.268 0 0 0 2.066-1.659l-1.433-1.068a4.373 4.373 0 0 1-1.434 1.237c-.581.319-1.293.478-2.137.478-.768 0-1.461-.136-2.08-.408a4.56 4.56 0 0 1-1.574-1.124 5.092 5.092 0 0 1-.998-1.673 5.984 5.984 0 0 1-.352-2.08c0-.75.118-1.448.352-2.095a4.942 4.942 0 0 1 1.012-1.686c.44-.478.97-.853 1.588-1.125.619-.272 1.312-.408 2.08-.408.713 0 1.373.164 1.982.492.61.328 1.073.745 1.392 1.251l1.49-1.068c-.562-.75-1.298-1.316-2.207-1.7-.909-.385-1.804-.577-2.685-.577-1.068 0-2.033.173-2.895.52a6.411 6.411 0 0 0-2.207 1.448 6.557 6.557 0 0 0-1.42 2.193c-.337.843-.506 1.761-.506 2.755 0 .993.169 1.911.506 2.755a6.55 6.55 0 0 0 1.42 2.192 6.411 6.411 0 0 0 2.207 1.448c.862.347 1.827.52 2.895.52zm17.402.169c1.35 0 2.652-.16 3.908-.478a12.903 12.903 0 0 0 3.514-1.462v-8.968h-6.663v1.771h4.639v6.045c-.581.374-1.34.684-2.277.927-.938.244-1.968.366-3.093.366-1.274 0-2.422-.234-3.444-.703a7.901 7.901 0 0 1-2.6-1.884 8.323 8.323 0 0 1-1.645-2.755 9.573 9.573 0 0 1-.576-3.317c0-1.162.192-2.268.576-3.317a8.484 8.484 0 0 1 1.645-2.77 7.806 7.806 0 0 1 2.6-1.897c1.022-.468 2.17-.703 3.444-.703 1.237 0 2.334.202 3.29.605a7.25 7.25 0 0 1 2.473 1.7l1.406-1.405a8.863 8.863 0 0 0-3.036-1.968c-1.181-.468-2.568-.703-4.16-.703-1.482 0-2.854.263-4.12.788a10.032 10.032 0 0 0-3.289 2.178 9.996 9.996 0 0 0-2.178 3.303c-.525 1.275-.787 2.671-.787 4.19 0 1.517.257 2.914.773 4.188a9.927 9.927 0 0 0 2.15 3.303 9.84 9.84 0 0 0 3.29 2.179c1.274.525 2.66.787 4.16.787zm14.619-.506V1.349H67.89v19.904h2.025zm10.317.506c.787 0 1.57-.112 2.347-.337a6.2 6.2 0 0 0 2.08-1.04 5.445 5.445 0 0 0 1.49-1.786c.385-.721.577-1.579.577-2.572 0-.993-.178-1.813-.534-2.46a4.97 4.97 0 0 0-1.378-1.602 7.531 7.531 0 0 0-1.897-1.026 49.865 49.865 0 0 0-2.095-.731 63.406 63.406 0 0 1-1.616-.562 5.63 5.63 0 0 1-1.378-.717 3.462 3.462 0 0 1-.97-1.055c-.243-.412-.365-.937-.365-1.574s.126-1.19.38-1.658a3.54 3.54 0 0 1 .997-1.167c.413-.31.872-.539 1.378-.689a5.228 5.228 0 0 1 1.49-.225c.956 0 1.77.183 2.446.548a4.861 4.861 0 0 1 1.658 1.448l1.603-1.293c-.488-.656-1.21-1.223-2.165-1.7-.956-.479-2.108-.718-3.458-.718-.73 0-1.471.103-2.22.31a6.298 6.298 0 0 0-2.053.984 5.212 5.212 0 0 0-1.504 1.714c-.384.694-.576 1.518-.576 2.474 0 .9.154 1.659.464 2.277a4.763 4.763 0 0 0 1.223 1.56 6.561 6.561 0 0 0 1.714 1.027 23.96 23.96 0 0 0 1.94.703c.637.206 1.246.412 1.827.618a6.625 6.625 0 0 1 1.547.773c.45.31.81.694 1.082 1.153.272.459.408 1.035.408 1.729 0 .637-.136 1.194-.408 1.672a4.078 4.078 0 0 1-1.04 1.21 4.348 4.348 0 0 1-1.42.73c-.525.16-1.04.24-1.546.24-1.05 0-1.963-.24-2.741-.718s-1.382-1.073-1.813-1.785l-1.743 1.293c.356.488.768.919 1.237 1.293.468.375.974.684 1.518.928a8.138 8.138 0 0 0 1.715.548c.6.122 1.2.183 1.799.183zm23.502-.506l5.004-17.092h.056l5.004 17.092h2.362l5.875-19.904h-2.137l-4.863 17.12h-.056l-4.976-17.12h-2.418l-4.976 17.12h-.056l-4.92-17.12h-2.136l5.875 19.904h2.362zm26.06.337a7.272 7.272 0 0 0 3.05-.646c.947-.431 1.814-1.143 2.6-2.137l-1.433-1.124c-.375.6-.923 1.129-1.645 1.588-.721.46-1.579.689-2.572.689a4.666 4.666 0 0 1-1.883-.38 4.878 4.878 0 0 1-1.519-1.026 4.685 4.685 0 0 1-1.012-1.518 5.134 5.134 0 0 1-.393-1.855h10.907c.02-.169.029-.328.029-.478v-.422a7.7 7.7 0 0 0-.408-2.53 6.039 6.039 0 0 0-1.195-2.066 5.62 5.62 0 0 0-1.968-1.406c-.787-.347-1.696-.52-2.727-.52-.937 0-1.808.173-2.614.52a6.463 6.463 0 0 0-2.109 1.448 6.67 6.67 0 0 0-1.405 2.193c-.337.843-.506 1.761-.506 2.755 0 .993.173 1.911.52 2.755.347.843.82 1.574 1.42 2.192a6.355 6.355 0 0 0 2.15 1.448 6.99 6.99 0 0 0 2.713.52zm4.189-7.927h-8.968a4.442 4.442 0 0 1 .422-1.617 4.752 4.752 0 0 1 2.417-2.333 4.426 4.426 0 0 1 1.771-.352c1.369 0 2.423.408 3.163 1.223.74.816 1.139 1.842 1.195 3.079zm13.044 7.927c1.03 0 1.963-.178 2.797-.534a6.373 6.373 0 0 0 2.137-1.462 6.602 6.602 0 0 0 1.377-2.192 7.458 7.458 0 0 0 .492-2.727c0-.975-.164-1.884-.492-2.727a6.602 6.602 0 0 0-1.377-2.193 6.373 6.373 0 0 0-2.137-1.462c-.834-.356-1.766-.534-2.797-.534a6.26 6.26 0 0 0-2.783.66 5.44 5.44 0 0 0-2.193 1.954h-.056V0h-1.912v21.253h1.912v-2.22h.056a5.397 5.397 0 0 0 2.193 1.91 6.37 6.37 0 0 0 2.783.647zm-.197-1.63a4.976 4.976 0 0 1-3.626-1.518 5.032 5.032 0 0 1-1.055-1.673 5.697 5.697 0 0 1-.379-2.094c0-.75.126-1.448.38-2.095a5.193 5.193 0 0 1 1.054-1.686c.45-.478.984-.853 1.602-1.125a4.976 4.976 0 0 1 2.024-.408c.787 0 1.49.141 2.109.422.618.281 1.138.66 1.56 1.139a5 5 0 0 1 .97 1.686c.225.647.337 1.336.337 2.067 0 .73-.112 1.42-.337 2.066a5.001 5.001 0 0 1-.97 1.687 4.42 4.42 0 0 1-1.56 1.124c-.619.272-1.322.408-2.109.408zm17.599 1.293l2.164-5.229h10.29l2.192 5.229h2.25l-8.547-19.904h-1.968l-8.602 19.904h2.22zm11.694-7.084h-8.77l4.385-10.57 4.385 10.57zM186.047 28v-8.968h.084a5.352 5.352 0 0 0 2.18 1.898c.908.44 1.831.66 2.768.66 1.031 0 1.963-.178 2.797-.534a6.373 6.373 0 0 0 2.137-1.462 6.602 6.602 0 0 0 1.377-2.192 7.458 7.458 0 0 0 .492-2.727c0-.975-.164-1.884-.492-2.727a6.602 6.602 0 0 0-1.377-2.193 6.373 6.373 0 0 0-2.137-1.462c-.834-.356-1.766-.534-2.797-.534-.937 0-1.86.22-2.769.66a5.221 5.221 0 0 0-2.179 1.954h-.084V8.096h-1.912V28h1.912zm4.835-8.04a4.976 4.976 0 0 1-3.626-1.518 5.032 5.032 0 0 1-1.054-1.673 5.697 5.697 0 0 1-.38-2.094 5.7 5.7 0 0 1 .38-2.095 5.193 5.193 0 0 1 1.054-1.686c.45-.478.984-.853 1.602-1.125a4.976 4.976 0 0 1 2.024-.408c.788 0 1.49.141 2.109.422.618.281 1.138.66 1.56 1.139a5 5 0 0 1 .97 1.686c.225.647.337 1.336.337 2.067 0 .73-.112 1.42-.337 2.066a5.001 5.001 0 0 1-.97 1.687 4.42 4.42 0 0 1-1.56 1.124c-.619.272-1.321.408-2.109.408zM203.898 28v-8.968h.085a5.352 5.352 0 0 0 2.179 1.898c.908.44 1.832.66 2.769.66 1.03 0 1.963-.178 2.797-.534a6.373 6.373 0 0 0 2.136-1.462 6.602 6.602 0 0 0 1.378-2.192 7.458 7.458 0 0 0 .492-2.727c0-.975-.164-1.884-.492-2.727a6.602 6.602 0 0 0-1.378-2.193 6.373 6.373 0 0 0-2.136-1.462c-.834-.356-1.767-.534-2.797-.534-.937 0-1.86.22-2.77.66a5.221 5.221 0 0 0-2.178 1.954h-.085V8.096h-1.911V28h1.911zm4.836-8.04a4.976 4.976 0 0 1-3.627-1.518 5.032 5.032 0 0 1-1.054-1.673 5.697 5.697 0 0 1-.38-2.094 5.7 5.7 0 0 1 .38-2.095 5.193 5.193 0 0 1 1.054-1.686c.45-.478.984-.853 1.603-1.125a4.976 4.976 0 0 1 2.024-.408c.787 0 1.49.141 2.108.422.619.281 1.139.66 1.56 1.139a5 5 0 0 1 .97 1.686c.225.647.338 1.336.338 2.067 0 .73-.113 1.42-.338 2.066a5.001 5.001 0 0 1-.97 1.687 4.42 4.42 0 0 1-1.56 1.124c-.618.272-1.321.408-2.108.408zm17.12 1.293c1.144 0 2.174-.131 3.093-.394.918-.262 1.696-.632 2.333-1.11a4.965 4.965 0 0 0 1.476-1.743c.347-.684.52-1.438.52-2.263 0-1.462-.426-2.62-1.28-3.472-.852-.853-1.925-1.354-3.218-1.504v-.056c1.068-.244 1.921-.755 2.558-1.532.637-.778.956-1.692.956-2.741 0-.994-.192-1.818-.576-2.474a4.493 4.493 0 0 0-1.49-1.56 6.192 6.192 0 0 0-2.066-.816 11.195 11.195 0 0 0-2.278-.239h-5.931v19.904h5.903zm.197-11.189h-4.076V3.092h3.514c.656 0 1.274.061 1.855.183a4.406 4.406 0 0 1 1.518.605 3.15 3.15 0 0 1 1.026 1.082c.253.44.38.98.38 1.616 0 .656-.127 1.21-.38 1.659-.253.45-.585.81-.998 1.082a4.1 4.1 0 0 1-1.363.577 6.667 6.667 0 0 1-1.476.168zm-.31 9.446h-3.766v-7.787h4.132c1.63 0 2.891.323 3.781.97.89.646 1.336 1.626 1.336 2.938 0 .693-.15 1.288-.45 1.785-.3.496-.698.9-1.195 1.208a5.37 5.37 0 0 1-1.743.675c-.665.14-1.363.211-2.094.211zm16.868 2.08c.937 0 1.828-.239 2.671-.717.843-.477 1.452-1.1 1.827-1.869h.057a25.452 25.452 0 0 0 .112 2.249h1.827a42.997 42.997 0 0 1-.112-2.896V8.097h-1.912v6.746c0 .881-.112 1.645-.337 2.292-.225.646-.525 1.18-.9 1.602a3.626 3.626 0 0 1-1.279.942 3.69 3.69 0 0 1-1.476.309c-.693 0-1.27-.112-1.729-.337a2.755 2.755 0 0 1-1.096-.942c-.272-.403-.464-.886-.576-1.448a9.638 9.638 0 0 1-.17-1.883V8.096h-1.91v8.069c0 1.63.416 2.942 1.25 3.935.834.994 2.085 1.49 3.753 1.49zm12.426-17.204c.337 0 .647-.127.928-.38a1.25 1.25 0 0 0 .421-.97c0-.393-.14-.717-.421-.97-.281-.253-.59-.38-.928-.38-.337 0-.647.127-.928.38a1.247 1.247 0 0 0-.421.97c0 .394.14.717.421.97.281.253.59.38.928.38zm.956 16.867V8.096h-1.912v13.157h1.912zm7.056 0V0h-1.912v21.253h1.912zm10.964.337a6.37 6.37 0 0 0 2.783-.646 5.397 5.397 0 0 0 2.193-1.912h.056v2.221h1.912V0h-1.912v10.373h-.056a5.433 5.433 0 0 0-2.193-1.953 6.26 6.26 0 0 0-2.783-.661c-1.03 0-1.963.178-2.797.534a6.373 6.373 0 0 0-2.137 1.462 6.602 6.602 0 0 0-1.377 2.193 7.458 7.458 0 0 0-.492 2.727c0 .974.164 1.883.492 2.727a6.602 6.602 0 0 0 1.377 2.192 6.373 6.373 0 0 0 2.137 1.462c.834.356 1.766.534 2.797.534zm.197-1.63c-.787 0-1.49-.136-2.109-.408a4.42 4.42 0 0 1-1.56-1.124 5.001 5.001 0 0 1-.97-1.687 6.245 6.245 0 0 1-.337-2.066c0-.731.112-1.42.337-2.067a5.001 5.001 0 0 1 .97-1.686 4.573 4.573 0 0 1 1.56-1.139c.619-.281 1.322-.422 2.109-.422.73 0 1.405.136 2.024.408a4.858 4.858 0 0 1 1.602 1.125c.45.477.801 1.04 1.054 1.686a5.7 5.7 0 0 1 .38 2.095c0 .75-.127 1.447-.38 2.094a5.032 5.032 0 0 1-1.054 1.673 4.962 4.962 0 0 1-3.626 1.518zm17.71 1.63a7.272 7.272 0 0 0 3.05-.646c.947-.431 1.814-1.143 2.601-2.137l-1.434-1.124c-.374.6-.923 1.129-1.644 1.588-.722.46-1.58.689-2.572.689a4.666 4.666 0 0 1-1.884-.38 4.878 4.878 0 0 1-1.518-1.026 4.685 4.685 0 0 1-1.012-1.518 5.134 5.134 0 0 1-.394-1.855h10.908c.019-.169.028-.328.028-.478v-.422a7.7 7.7 0 0 0-.408-2.53 6.039 6.039 0 0 0-1.194-2.066 5.62 5.62 0 0 0-1.968-1.406c-.787-.347-1.696-.52-2.727-.52-.937 0-1.809.173-2.615.52a6.463 6.463 0 0 0-2.108 1.448 6.67 6.67 0 0 0-1.406 2.193c-.337.843-.506 1.761-.506 2.755 0 .993.174 1.911.52 2.755.347.843.82 1.574 1.42 2.192a6.355 6.355 0 0 0 2.15 1.448 7 7 0 0 0 2.714.52zm4.19-7.927h-8.969a4.442 4.442 0 0 1 .422-1.617 4.752 4.752 0 0 1 2.418-2.333 4.426 4.426 0 0 1 1.77-.352c1.369 0 2.423.408 3.164 1.223.74.816 1.138 1.842 1.194 3.079zm7.955 7.59v-6.747c0-.88.108-1.635.323-2.263.216-.628.497-1.143.844-1.546a3.134 3.134 0 0 1 1.223-.886 3.9 3.9 0 0 1 1.462-.28c.262 0 .524.018.787.055.262.038.45.075.562.113l.253-1.8a3.59 3.59 0 0 0-.604-.112 7.02 7.02 0 0 0-.661-.028c-.937 0-1.78.239-2.53.717a4.557 4.557 0 0 0-1.687 1.87h-.056a25.454 25.454 0 0 0-.113-2.25h-1.827a42.997 42.997 0 0 1 .112 2.896v10.261h1.912z" fill="#FFF"/></svg>